<mxfile host="app.diagrams.net" modified="2024-03-23T15:38:49.275Z" agent="Mozilla/5.0 (Windows NT 10.0; Win64; x64) AppleWebKit/537.36 (KHTML, like Gecko) Chrome/122.0.0.0 Safari/537.36 Edg/122.0.0.0" etag="Fdw-x8ovBlY0ilUr0QHd" version="24.0.9" type="device">
  <diagram name="Page-1" id="qGfaBhv2TkYcMkKiUk_J">
    <mxGraphModel dx="1594" dy="902" grid="1" gridSize="10" guides="1" tooltips="1" connect="1" arrows="1" fold="1" page="1" pageScale="1" pageWidth="827" pageHeight="1169" math="0" shadow="0">
      <root>
        <mxCell id="0" />
        <mxCell id="1" parent="0" />
        <mxCell id="ekhtG30pPmcST2sLoeJs-9" value="" style="rounded=0;whiteSpace=wrap;html=1;fillColor=none;strokeWidth=1;" vertex="1" parent="1">
          <mxGeometry x="330" y="90" width="240" height="480" as="geometry" />
        </mxCell>
        <mxCell id="ekhtG30pPmcST2sLoeJs-4" value="" style="rounded=1;whiteSpace=wrap;html=1;fillColor=none;dashed=1;dashPattern=8 8;strokeWidth=3;" vertex="1" parent="1">
          <mxGeometry x="30" y="80" width="570" height="200" as="geometry" />
        </mxCell>
        <mxCell id="ekhtG30pPmcST2sLoeJs-2" value="" style="shape=image;verticalLabelPosition=bottom;labelBackgroundColor=default;verticalAlign=top;aspect=fixed;imageAspect=0;image=https://cdn-icons-png.flaticon.com/512/25/25231.png;" vertex="1" parent="1">
          <mxGeometry x="390" y="130" width="120" height="120" as="geometry" />
        </mxCell>
        <mxCell id="ekhtG30pPmcST2sLoeJs-6" value="" style="sketch=0;pointerEvents=1;shadow=0;dashed=0;html=1;strokeColor=none;fillColor=#005F4B;labelPosition=center;verticalLabelPosition=bottom;verticalAlign=top;align=center;outlineConnect=0;shape=mxgraph.veeam2.laptop;" vertex="1" parent="1">
          <mxGeometry x="353.86" y="430" width="202.29" height="118" as="geometry" />
        </mxCell>
        <mxCell id="ekhtG30pPmcST2sLoeJs-7" value="" style="rounded=1;whiteSpace=wrap;html=1;fillColor=none;dashed=1;dashPattern=8 8;strokeWidth=3;" vertex="1" parent="1">
          <mxGeometry x="300" y="395" width="300" height="190" as="geometry" />
        </mxCell>
        <mxCell id="ekhtG30pPmcST2sLoeJs-11" value="" style="shape=flexArrow;endArrow=classic;html=1;rounded=0;exitX=0.368;exitY=0.3;exitDx=0;exitDy=0;exitPerimeter=0;fillColor=#d5e8d4;strokeColor=#82b366;" edge="1" parent="1" source="ekhtG30pPmcST2sLoeJs-4">
          <mxGeometry width="50" height="50" relative="1" as="geometry">
            <mxPoint x="100" y="203" as="sourcePoint" />
            <mxPoint x="380" y="139.99999999999977" as="targetPoint" />
          </mxGeometry>
        </mxCell>
        <mxCell id="ekhtG30pPmcST2sLoeJs-12" value="" style="shape=flexArrow;endArrow=classic;html=1;rounded=0;exitX=0.368;exitY=0.3;exitDx=0;exitDy=0;exitPerimeter=0;fillColor=#dae8fc;strokeColor=#6c8ebf;entryX=0.368;entryY=0.6;entryDx=0;entryDy=0;entryPerimeter=0;" edge="1" parent="1" target="ekhtG30pPmcST2sLoeJs-4">
          <mxGeometry width="50" height="50" relative="1" as="geometry">
            <mxPoint x="374.97" y="200" as="sourcePoint" />
            <mxPoint x="255.03000000000006" y="200" as="targetPoint" />
          </mxGeometry>
        </mxCell>
        <mxCell id="ekhtG30pPmcST2sLoeJs-13" value="" style="shape=flexArrow;endArrow=classic;html=1;rounded=0;exitX=0.368;exitY=0.3;exitDx=0;exitDy=0;exitPerimeter=0;fillColor=#d5e8d4;strokeColor=#82b366;" edge="1" parent="1">
          <mxGeometry width="50" height="50" relative="1" as="geometry">
            <mxPoint x="480" y="270" as="sourcePoint" />
            <mxPoint x="480" y="410" as="targetPoint" />
          </mxGeometry>
        </mxCell>
        <mxCell id="ekhtG30pPmcST2sLoeJs-14" value="" style="shape=flexArrow;endArrow=classic;html=1;rounded=0;fillColor=#dae8fc;strokeColor=#6c8ebf;" edge="1" parent="1">
          <mxGeometry width="50" height="50" relative="1" as="geometry">
            <mxPoint x="420" y="410" as="sourcePoint" />
            <mxPoint x="420.03" y="270" as="targetPoint" />
          </mxGeometry>
        </mxCell>
        <mxCell id="ekhtG30pPmcST2sLoeJs-15" style="edgeStyle=orthogonalEdgeStyle;rounded=0;orthogonalLoop=1;jettySize=auto;html=1;exitX=0.5;exitY=1;exitDx=0;exitDy=0;" edge="1" parent="1" source="ekhtG30pPmcST2sLoeJs-9" target="ekhtG30pPmcST2sLoeJs-9">
          <mxGeometry relative="1" as="geometry" />
        </mxCell>
        <mxCell id="ekhtG30pPmcST2sLoeJs-17" value="" style="shape=image;verticalLabelPosition=bottom;labelBackgroundColor=default;verticalAlign=top;aspect=fixed;imageAspect=0;image=https://cdn-icons-png.flaticon.com/512/25/25231.png;" vertex="1" parent="1">
          <mxGeometry x="80" y="130" width="120" height="120" as="geometry" />
        </mxCell>
        <mxCell id="ekhtG30pPmcST2sLoeJs-18" value="Compte enseignant" style="text;html=1;align=center;verticalAlign=middle;whiteSpace=wrap;rounded=0;fontSize=18;fontStyle=1" vertex="1" parent="1">
          <mxGeometry x="40" y="90" width="200" height="30" as="geometry" />
        </mxCell>
        <mxCell id="ekhtG30pPmcST2sLoeJs-19" value="Compte élève" style="text;html=1;align=center;verticalAlign=middle;whiteSpace=wrap;rounded=0;fontSize=18;fontStyle=1" vertex="1" parent="1">
          <mxGeometry x="350" y="90" width="200" height="30" as="geometry" />
        </mxCell>
        <mxCell id="ekhtG30pPmcST2sLoeJs-20" value="Repos distants&lt;div&gt;(remote)&lt;/div&gt;" style="text;html=1;align=center;verticalAlign=middle;whiteSpace=wrap;rounded=0;fontSize=18;fontStyle=1;direction=north;rotation=0;horizontal=0;" vertex="1" parent="1">
          <mxGeometry x="615" y="75" width="30" height="200" as="geometry" />
        </mxCell>
        <mxCell id="ekhtG30pPmcST2sLoeJs-21" value="Repo local" style="text;html=1;align=center;verticalAlign=middle;whiteSpace=wrap;rounded=0;fontSize=18;fontStyle=1;rotation=0;horizontal=0;direction=south;" vertex="1" parent="1">
          <mxGeometry x="615" y="385" width="30" height="200" as="geometry" />
        </mxCell>
        <mxCell id="ekhtG30pPmcST2sLoeJs-22" value="1. fork*" style="text;html=1;align=center;verticalAlign=middle;whiteSpace=wrap;rounded=0;fontSize=16;fontStyle=3" vertex="1" parent="1">
          <mxGeometry x="270" y="100" width="60" height="30" as="geometry" />
        </mxCell>
        <mxCell id="ekhtG30pPmcST2sLoeJs-24" value="4. Pull Request" style="text;html=1;align=center;verticalAlign=middle;whiteSpace=wrap;rounded=0;fontSize=16;fontStyle=3" vertex="1" parent="1">
          <mxGeometry x="260" y="210" width="120" height="30" as="geometry" />
        </mxCell>
        <mxCell id="ekhtG30pPmcST2sLoeJs-25" value="3. Push" style="text;html=1;align=center;verticalAlign=middle;whiteSpace=wrap;rounded=0;fontSize=16;fontStyle=3;horizontal=0;direction=south;" vertex="1" parent="1">
          <mxGeometry x="384" y="290" width="30" height="120" as="geometry" />
        </mxCell>
        <mxCell id="ekhtG30pPmcST2sLoeJs-26" value="2. Clone" style="text;html=1;align=center;verticalAlign=middle;whiteSpace=wrap;rounded=0;fontSize=16;fontStyle=3;horizontal=0;direction=south;" vertex="1" parent="1">
          <mxGeometry x="480" y="280" width="30" height="120" as="geometry" />
        </mxCell>
        <mxCell id="ekhtG30pPmcST2sLoeJs-28" value="&lt;div style=&quot;font-size: 13px;&quot;&gt;&lt;span style=&quot;background-color: initial; font-size: 13px;&quot;&gt;* Pour éviter de partager ses propositions, passer&amp;nbsp;&lt;/span&gt;&lt;/div&gt;&lt;div style=&quot;font-size: 13px;&quot;&gt;&lt;span style=&quot;background-color: initial; font-size: 13px;&quot;&gt;&amp;nbsp; son repo en privé,&amp;nbsp;&lt;/span&gt;&lt;span style=&quot;background-color: initial; font-size: 13px;&quot;&gt;et dans ce cas inviter son&lt;/span&gt;&lt;/div&gt;&lt;div style=&quot;font-size: 13px;&quot;&gt;&lt;span style=&quot;background-color: initial; font-size: 13px;&quot;&gt;&amp;nbsp; enseignant dans son repo.&lt;/span&gt;&lt;/div&gt;" style="text;html=1;align=left;verticalAlign=middle;resizable=0;points=[];autosize=1;strokeColor=none;fillColor=none;fontSize=13;" vertex="1" parent="1">
          <mxGeometry x="30" y="300" width="310" height="60" as="geometry" />
        </mxCell>
      </root>
    </mxGraphModel>
  </diagram>
</mxfile>
